<svg xmlns="http://www.w3.org/2000/svg" viewBox="0 0 512 512">
  <defs>
    <linearGradient id="bg" x1="0" y1="0" x2="1" y2="1">
      <stop offset="0" stop-color="#F5A9B8" />
      <stop offset="1" stop-color="#5BCEFA" />
    </linearGradient>
  </defs>
  <rect width="512" height="512" fill="url(#bg)" />

  <g transform="translate(256,266)" fill="#ffffff" fill-opacity="0.96">
    <!-- corpo -->
    <rect x="-7" y="-90" width="14" height="180" rx="7" />
    <!-- asa superior esquerda -->
    <path d="M -10 -70 C -70 -140 -170 -120 -180 -40 C -186 20 -120 40 -60 10 C -30 -5 -12 -35 -10 -70 Z" />
    <!-- asa superior direita -->
    <path d="M 10 -70 C 70 -140 170 -120 180 -40 C 186 20 120 40 60 10 C 30 -5 12 -35 10 -70 Z" />
    <!-- asa inferior esquerda -->
    <path d="M -8 0 C -50 40 -120 50 -140 100 C -152 135 -110 155 -70 130 C -35 108 -15 55 -8 0 Z" />
    <!-- asa inferior direita -->
    <path d="M 8 0 C 50 40 120 50 140 100 C 152 135 110 155 70 130 C 35 108 15 55 8 0 Z" />
  </g>
</svg>
